<svg xmlns="http://www.w3.org/2000/svg" viewBox="0 0 249.56 75.11"><defs><style>.cls-1{fill:#fff;}</style></defs><g id="Layer_2" data-name="Layer 2"><g id="Réteg_1" data-name="Réteg 1"><path class="cls-1" d="M5.74,65.23H.79v4.14H5.56v.74H.79v4.73H0V64.49H5.74Z"/><path class="cls-1" d="M13.06,67.45h.73v7.4h-.74V73.44A2.74,2.74,0,0,1,10.4,75a2.76,2.76,0,0,1-2.09-.81,2.94,2.94,0,0,1-.77-2.15v-4.6h.75v4.6a2.29,2.29,0,0,0,.57,1.64,2.07,2.07,0,0,0,1.6.61,2.5,2.5,0,0,0,1.87-.75,3.06,3.06,0,0,0,.72-2.19Z"/><path class="cls-1" d="M19.8,67.29a2.77,2.77,0,0,1,2.09.81,3,3,0,0,1,.77,2.15v4.6h-.75v-4.6a2.31,2.31,0,0,0-.57-1.64A2.12,2.12,0,0,0,19.73,68a2.47,2.47,0,0,0-1.86.76A3,3,0,0,0,17.14,71v3.9H16.4v-7.4h.74v1.4A2.75,2.75,0,0,1,19.8,67.29Z"/><path class="cls-1" d="M30.82,74.86h-1l-3.92-3.64v3.63h-.74V64.5h.73v6.32l3.75-3.36h1l-4,3.55Z"/><path class="cls-1" d="M35.53,75a3.79,3.79,0,0,1-3.89-3.86,3.72,3.72,0,0,1,1.11-2.75,4,4,0,0,1,4.74-.6,3,3,0,0,1,1.27,1.39l-.61.35a2.42,2.42,0,0,0-1-1.12,3.2,3.2,0,0,0-3.82.49,3.24,3.24,0,0,0,0,4.48,3,3,0,0,0,2.23.91,3.11,3.11,0,0,0,1.59-.41,2.8,2.8,0,0,0,1.08-1.13l.62.37a3.31,3.31,0,0,1-1.33,1.37A3.82,3.82,0,0,1,35.53,75Z"/><path class="cls-1" d="M41.57,65.51a.59.59,0,0,1-.83,0,.57.57,0,0,1-.17-.43.52.52,0,0,1,.17-.4.57.57,0,0,1,.42-.17.54.54,0,0,1,.41.17.53.53,0,0,1,.18.4A.58.58,0,0,1,41.57,65.51Zm-.79,9.35V67.47h.74v7.39Z"/><path class="cls-1" d="M47.52,75a3.78,3.78,0,0,1-2.75-1.12,3.9,3.9,0,0,1,0-5.49,4,4,0,0,1,5.5,0,3.9,3.9,0,0,1,0,5.49A3.74,3.74,0,0,1,47.52,75ZM45.3,73.4a3,3,0,0,0,2.23.92,3,3,0,0,0,2.21-.92,3,3,0,0,0,.91-2.23,3.09,3.09,0,0,0-.9-2.24A3,3,0,0,0,47.53,68a3,3,0,0,0-2.23.91,3.09,3.09,0,0,0-.91,2.24A3,3,0,0,0,45.3,73.4Z"/><path class="cls-1" d="M56.93,67.31a2.74,2.74,0,0,1,2.09.81,3,3,0,0,1,.78,2.15v4.6H59v-4.6a2.28,2.28,0,0,0-.56-1.64A2.09,2.09,0,0,0,56.87,68a2.46,2.46,0,0,0-1.86.75A3,3,0,0,0,54.28,71v3.91h-.74v-7.4h.74v1.41A2.75,2.75,0,0,1,56.93,67.31Z"/><path class="cls-1" d="M68.82,67.48h.75v7.39h-.75V73.2a3.59,3.59,0,0,1-1.3,1.35,3.87,3.87,0,1,1,0-6.75,3.59,3.59,0,0,1,1.3,1.35Zm-5.35,5.93a3.07,3.07,0,0,0,2.23.92,3,3,0,0,0,2.22-.92,3.23,3.23,0,0,0,0-4.47A3,3,0,0,0,65.7,68a3.17,3.17,0,0,0-2.23,5.39Zm3.69-8.85-1.35,1.88h-.72l1.19-1.88Z"/><path class="cls-1" d="M72.18,74.88V64.08h.74v10.8Z"/><path class="cls-1" d="M76.33,65.52a.54.54,0,0,1-.41.17.57.57,0,0,1-.42-.17.57.57,0,0,1-.17-.42.55.55,0,0,1,.18-.41.57.57,0,0,1,.41-.17.58.58,0,0,1,.41.17.55.55,0,0,1,.18.41A.54.54,0,0,1,76.33,65.52Zm-.79,9.36v-7.4h.74v7.4Z"/><path class="cls-1" d="M79.36,69.4a.94.94,0,0,0,.46.84,3.48,3.48,0,0,0,1.12.48l1.33.35a2.38,2.38,0,0,1,1.11.64,1.66,1.66,0,0,1,.46,1.23,1.86,1.86,0,0,1-.74,1.51,2.89,2.89,0,0,1-1.91.59,3.39,3.39,0,0,1-1.8-.45,2.37,2.37,0,0,1-1-1.19L79,73a1.77,1.77,0,0,0,.78,1,2.58,2.58,0,0,0,1.4.35A2.43,2.43,0,0,0,82.56,74a1.16,1.16,0,0,0,.54-1,1,1,0,0,0-.46-.87,3.49,3.49,0,0,0-1.12-.5l-1.32-.35a2.33,2.33,0,0,1-1.12-.62,1.54,1.54,0,0,1-.46-1.18,1.88,1.88,0,0,1,.7-1.49,2.64,2.64,0,0,1,1.81-.61,3,3,0,0,1,1.55.4,2.47,2.47,0,0,1,1,1.08l-.62.36a1.65,1.65,0,0,0-.74-.84A2.38,2.38,0,0,0,81.13,68a2.07,2.07,0,0,0-1.26.37A1.18,1.18,0,0,0,79.36,69.4Z"/><path class="cls-1" d="M92.91,67.33a3.35,3.35,0,0,1,2.64,1.15,4,4,0,0,1,1,2.74,1.36,1.36,0,0,1,0,.18,1.16,1.16,0,0,0,0,.17h-6.7a3,3,0,0,0,1,2,3.16,3.16,0,0,0,2.14.76A3.09,3.09,0,0,0,94.53,74a2.58,2.58,0,0,0,1-1l.65.39a3.33,3.33,0,0,1-1.3,1.22,4.07,4.07,0,0,1-1.93.45A3.81,3.81,0,0,1,90.17,74a4.05,4.05,0,0,1,0-5.53A3.65,3.65,0,0,1,92.91,67.33Zm0,.71a3,3,0,0,0-2.1.78,3,3,0,0,0-1,2h6a3,3,0,0,0-.94-2.07A2.83,2.83,0,0,0,92.91,68Zm1.35-3.47-1.34,1.88H92.2l1.18-1.87Z"/><path class="cls-1" d="M99.06,69.41a.94.94,0,0,0,.46.84,4.11,4.11,0,0,0,1.12.48l1.33.35a2.38,2.38,0,0,1,1.11.64,1.66,1.66,0,0,1,.46,1.23,1.86,1.86,0,0,1-.74,1.51,2.94,2.94,0,0,1-1.91.59,3.39,3.39,0,0,1-1.8-.45,2.37,2.37,0,0,1-1-1.19l.64-.37a1.71,1.71,0,0,0,.77.95,2.67,2.67,0,0,0,1.4.35,2.43,2.43,0,0,0,1.37-.36,1.16,1.16,0,0,0,.54-1,1,1,0,0,0-.46-.87,3.49,3.49,0,0,0-1.12-.5l-1.32-.35a2.47,2.47,0,0,1-1.12-.62,1.54,1.54,0,0,1-.46-1.18,1.88,1.88,0,0,1,.7-1.49,2.64,2.64,0,0,1,1.81-.61,2.89,2.89,0,0,1,1.55.4,2.47,2.47,0,0,1,1,1.08l-.63.35a1.6,1.6,0,0,0-.73-.83,2.38,2.38,0,0,0-1.16-.29,2.07,2.07,0,0,0-1.26.37A1.18,1.18,0,0,0,99.06,69.41Z"/><path class="cls-1" d="M110,69a2.45,2.45,0,0,1,2.47-1.56v.71a2.45,2.45,0,0,0-1.76.68,2.58,2.58,0,0,0-.71,2v4.11h-.74V67.5H110Z"/><path class="cls-1" d="M117.33,67.34A3.33,3.33,0,0,1,120,68.49a4,4,0,0,1,1,2.74s0,.1,0,.18,0,.13,0,.17h-6.7a3,3,0,0,0,1,2,3.16,3.16,0,0,0,2.14.76A3.09,3.09,0,0,0,119,74a2.58,2.58,0,0,0,1-1l.65.39a3.33,3.33,0,0,1-1.3,1.22,4.07,4.07,0,0,1-1.93.45,3.92,3.92,0,0,1-2.81-6.62A3.64,3.64,0,0,1,117.33,67.34Zm0,.71a3,3,0,0,0-2.1.78,3.07,3.07,0,0,0-1,2h6a3,3,0,0,0-.94-2.06A2.79,2.79,0,0,0,117.33,68.05Z"/><path class="cls-1" d="M126.47,67.34a2.77,2.77,0,0,1,2.09.81,3,3,0,0,1,.77,2.15v4.6h-.75V70.3a2.29,2.29,0,0,0-.57-1.64,2.07,2.07,0,0,0-1.6-.61,2.5,2.5,0,0,0-1.87.75,3.08,3.08,0,0,0-.72,2.19V74.9h-.74V64.54h.74v4.37A2.74,2.74,0,0,1,126.47,67.34Z"/><path class="cls-1" d="M138.35,67.51h.76v7.4h-.75V73.23a3.45,3.45,0,0,1-1.3,1.35,3.83,3.83,0,0,1-4.58-.63,3.86,3.86,0,0,1,4.58-6.12,3.44,3.44,0,0,1,1.3,1.35ZM133,73.44a3,3,0,0,0,2.23.92,3,3,0,0,0,2.22-.92,3.06,3.06,0,0,0,.9-2.23,3.09,3.09,0,0,0-.9-2.24A3.16,3.16,0,0,0,133,69a3,3,0,0,0-.91,2.23A3.08,3.08,0,0,0,133,73.44Z"/><path class="cls-1" d="M145.64,67.35a3.67,3.67,0,0,1,2.71,1.12,3.86,3.86,0,0,1-2.72,6.6,3.59,3.59,0,0,1-1.88-.5,3.52,3.52,0,0,1-1.3-1.38v1.72h-.74V64.55h.74v4.68a3.43,3.43,0,0,1,1.29-1.38A3.66,3.66,0,0,1,145.64,67.35Zm-2.28,6.09a3.16,3.16,0,0,0,4.46,0,3.15,3.15,0,0,0-2.23-5.38,3,3,0,0,0-2.22.92,3.17,3.17,0,0,0,0,4.46Z"/><path class="cls-1" d="M152.37,65.56a.58.58,0,0,1-.41.17.57.57,0,0,1-.41-.17.58.58,0,0,1-.18-.43.6.6,0,0,1,.59-.57.54.54,0,0,1,.41.17.53.53,0,0,1,.18.4A.58.58,0,0,1,152.37,65.56Zm-.79,9.35V67.52h.74v7.39Z"/><path class="cls-1" d="M154.93,74.91V64.12h.74V74.91Z"/><path class="cls-1" d="M159.09,65.56a.61.61,0,0,1-.42.17.58.58,0,0,1-.41-.17.54.54,0,0,1-.18-.42.54.54,0,0,1,.18-.41.58.58,0,0,1,.41-.17.61.61,0,0,1,.42.17.57.57,0,0,1,.17.41A.57.57,0,0,1,159.09,65.56Zm-.79,9.35V67.52H159v7.39Z"/><path class="cls-1" d="M165.42,68.25h-2.21v4.8a1.41,1.41,0,0,0,.24.92,1,1,0,0,0,.72.32,7.88,7.88,0,0,0,1.24,0v.67a3.5,3.5,0,0,1-2.22-.21,1.76,1.76,0,0,1-.73-1.66v-4.8h-1.63v-.72h1.63V65.67l.75-.22v2.07h2.21Z"/><path class="cls-1" d="M173.58,67.53h.75v7.39h-.76V73.25a3.51,3.51,0,0,1-1.3,1.35,3.87,3.87,0,0,1-4.59-.64,3.9,3.9,0,0,1,0-5.48,3.68,3.68,0,0,1,2.7-1.12,3.59,3.59,0,0,1,1.88.49,3.45,3.45,0,0,1,1.3,1.35Zm-5.35,5.92a3.15,3.15,0,0,0,4.44,0,3.23,3.23,0,0,0,0-4.47,3.15,3.15,0,0,0-4.44,4.46Zm3.68-8.84-1.34,1.88h-.72L171,64.61Z"/><path class="cls-1" d="M180.35,75.09A3.78,3.78,0,0,1,177.57,74a3.7,3.7,0,0,1-1.1-2.76,3.78,3.78,0,0,1,3.89-3.85,3.78,3.78,0,0,1,1.95.51,3,3,0,0,1,1.27,1.38l-.61.36a2.48,2.48,0,0,0-1-1.13,3.14,3.14,0,0,0-1.59-.41,3.15,3.15,0,1,0,0,6.3,3,3,0,0,0,1.58-.42A2.77,2.77,0,0,0,183,72.84l.62.37a3.37,3.37,0,0,1-1.33,1.37A3.82,3.82,0,0,1,180.35,75.09Z"/><path class="cls-1" d="M186.39,65.57a.54.54,0,0,1-.41.17.61.61,0,0,1-.42-.17.57.57,0,0,1-.17-.42.55.55,0,0,1,.18-.41.57.57,0,0,1,.41-.17.58.58,0,0,1,.41.17.55.55,0,0,1,.18.41A.54.54,0,0,1,186.39,65.57Zm-.79,9.36v-7.4h.74v7.4Z"/><path class="cls-1" d="M192.35,75.09A3.75,3.75,0,0,1,189.59,74a3.67,3.67,0,0,1-1.13-2.74,3.71,3.71,0,0,1,1.13-2.74,3.78,3.78,0,0,1,2.76-1.12,3.74,3.74,0,0,1,2.74,1.12,3.68,3.68,0,0,1,1.14,2.74,3.84,3.84,0,0,1-3.88,3.86Zm-2.23-1.63a3.16,3.16,0,0,0,4.45,0,3.09,3.09,0,0,0,.9-2.24,3.06,3.06,0,0,0-.9-2.23,3,3,0,0,0-2.22-.92,3.16,3.16,0,0,0-2.23,5.38Zm1.57-7h.72l1.34-1.88h-.88Z"/><path class="cls-1" d="M198.75,69.45a1,1,0,0,0,.47.85,3.6,3.6,0,0,0,1.12.47l1.32.35a2.41,2.41,0,0,1,1.12.64,1.7,1.7,0,0,1,.45,1.24,1.83,1.83,0,0,1-.73,1.5,2.94,2.94,0,0,1-1.92.6,3.33,3.33,0,0,1-1.79-.46,2.35,2.35,0,0,1-1-1.19l.64-.37a1.78,1.78,0,0,0,.77,1,2.67,2.67,0,0,0,1.4.35A2.35,2.35,0,0,0,202,74a1.16,1.16,0,0,0,.54-1,1,1,0,0,0-.46-.88,3.33,3.33,0,0,0-1.11-.49l-1.33-.35a2.62,2.62,0,0,1-1.12-.62,1.57,1.57,0,0,1-.46-1.19,1.91,1.91,0,0,1,.7-1.49,2.72,2.72,0,0,1,1.82-.61,2.88,2.88,0,0,1,1.54.41,2.39,2.39,0,0,1,1,1.07l-.62.36a1.73,1.73,0,0,0-.74-.84,2.48,2.48,0,0,0-1.15-.29,2.08,2.08,0,0,0-1.27.38A1.15,1.15,0,0,0,198.75,69.45Z"/><path class="cls-1" d="M212.76,68.27h-2.2v4.8a1.41,1.41,0,0,0,.24.92,1,1,0,0,0,.72.32,8,8,0,0,0,1.25,0v.67a3.45,3.45,0,0,1-2.23-.21,1.76,1.76,0,0,1-.73-1.66v-4.8h-1.63v-.73h1.62V65.69l.76-.22v2.07h2.2Z"/><path class="cls-1" d="M215.45,69a2.45,2.45,0,0,1,2.47-1.55v.71a2.49,2.49,0,0,0-1.76.67,2.66,2.66,0,0,0-.72,2v4.11h-.74v-7.4h.74Z"/><path class="cls-1" d="M222.76,67.38a3.33,3.33,0,0,1,2.64,1.16,4,4,0,0,1,1,2.74s0,.1,0,.17a1.36,1.36,0,0,0,0,.18h-6.7a3,3,0,0,0,1,2,3.11,3.11,0,0,0,2.14.77,3.2,3.2,0,0,0,1.55-.37,2.55,2.55,0,0,0,1-1l.66.39a3.36,3.36,0,0,1-1.31,1.22,4,4,0,0,1-1.92.45A3.8,3.8,0,0,1,220,74a3.72,3.72,0,0,1-1.1-2.78A3.79,3.79,0,0,1,220,68.49,3.68,3.68,0,0,1,222.76,67.38Zm0,.71a3,3,0,0,0-2.1.79,3.07,3.07,0,0,0-1,2h6a3,3,0,0,0-.94-2.07A2.85,2.85,0,0,0,222.76,68.09Zm1.36-3.46-1.35,1.88h-.72l1.19-1.88Z"/><path class="cls-1" d="M231.89,67.39a2.78,2.78,0,0,1,2.1.81,3,3,0,0,1,.77,2.15V75H234v-4.6a2.29,2.29,0,0,0-.57-1.64,2.07,2.07,0,0,0-1.61-.61,2.46,2.46,0,0,0-1.86.75,3.06,3.06,0,0,0-.72,2.19V75h-.74v-7.4h.74V69A2.73,2.73,0,0,1,231.89,67.39Z"/><path class="cls-1" d="M240.6,67.39a3.33,3.33,0,0,1,2.64,1.16,4,4,0,0,1,1,2.73s0,.1,0,.18a1.36,1.36,0,0,0,0,.18h-6.7a3,3,0,0,0,1,2,3.09,3.09,0,0,0,2.13.76,3.16,3.16,0,0,0,1.56-.37,2.46,2.46,0,0,0,1-1l.65.38a3.19,3.19,0,0,1-1.3,1.22,4,4,0,0,1-1.92.45,3.81,3.81,0,0,1-2.8-1.08,3.75,3.75,0,0,1-1.09-2.78,3.83,3.83,0,0,1,1.07-2.76A3.71,3.71,0,0,1,240.6,67.39Zm0,.71a3,3,0,0,0-2.1.79,3,3,0,0,0-1,2h5.94a3,3,0,0,0-.93-2.06A2.8,2.8,0,0,0,240.6,68.1Z"/><path class="cls-1" d="M247.08,69a2.46,2.46,0,0,1,2.48-1.55v.71a2.45,2.45,0,0,0-1.76.67,2.6,2.6,0,0,0-.72,2V75h-.74V67.56h.74Z"/><path class="cls-1" d="M33.64,29.77v4.34h-6.2V52.76H22.9V34.1H16.73V29.76Z"/><path class="cls-1" d="M48.82,52.77l-4.64-8H40.75v8H36.21v-23h9.2a7.61,7.61,0,0,1,7.65,7.62,7.1,7.1,0,0,1-1.22,4,7.66,7.66,0,0,1-3.22,2.74l5.09,8.67ZM40.75,34v6.8h4.66a2.9,2.9,0,0,0,2.21-1,3.45,3.45,0,0,0,.91-2.41,3.4,3.4,0,0,0-.91-2.4,2.92,2.92,0,0,0-2.2-1Z"/><path class="cls-1" d="M72.49,52.78,71,48.64H61.58L60.2,52.77H55.31l8.06-23H69l8.1,23ZM63.06,44.4h6.47L66.22,35Z"/><path class="cls-1" d="M79.52,29.79h4.53v23H79.51Z"/><path class="cls-1" d="M150.31,48.48H160v4.34H145.77v-23h14.06v4.33h-9.52v4.89H159v4.26h-8.71Z"/><path class="cls-1" d="M176.61,52.82l-4.65-8h-3.43v8H164v-23h9.19a7.63,7.63,0,0,1,7.65,7.63,7,7,0,0,1-1.22,3.95,7.53,7.53,0,0,1-3.22,2.74l5.09,8.68Zm-8.08-18.75v6.8h4.67a2.89,2.89,0,0,0,2.2-1,3.46,3.46,0,0,0,.92-2.42,3.37,3.37,0,0,0-.92-2.39,2.9,2.9,0,0,0-2.2-1Z"/><path class="cls-1" d="M206.84,40.49v1.77a10.6,10.6,0,0,1-3.16,8,11.2,11.2,0,0,1-8.14,3,12,12,0,0,1-8.82-3.47,11.45,11.45,0,0,1-3.49-8.45,11.87,11.87,0,0,1,12.06-12,12,12,0,0,1,5.87,1.47,10.72,10.72,0,0,1,4.14,3.89L201.42,37a6.13,6.13,0,0,0-2.47-2.3,7.75,7.75,0,0,0-3.7-.88,7.26,7.26,0,0,0-5.4,2.14,7.42,7.42,0,0,0-2.12,5.44,7.2,7.2,0,0,0,2.14,5.37,7.8,7.8,0,0,0,5.7,2.12,7.66,7.66,0,0,0,4.35-1.16,5.79,5.79,0,0,0,2.35-3.21h-7v-4Z"/><path class="cls-1" d="M232.86,40.5v1.77a10.64,10.64,0,0,1-3.16,8,11.16,11.16,0,0,1-8.15,3,12,12,0,0,1-8.81-3.46,11.46,11.46,0,0,1-3.5-8.46,11.85,11.85,0,0,1,12.06-12,12,12,0,0,1,5.88,1.46,10.94,10.94,0,0,1,4.14,3.89L227.44,37a6,6,0,0,0-2.48-2.3,7.57,7.57,0,0,0-3.69-.89,7.22,7.22,0,0,0-5.4,2.15,7.38,7.38,0,0,0-2.12,5.43,7.22,7.22,0,0,0,2.14,5.37,7.8,7.8,0,0,0,5.7,2.12,7.66,7.66,0,0,0,4.35-1.16,5.85,5.85,0,0,0,2.35-3.2h-7v-4Z"/><path class="cls-1" d="M139,9.63c.28-3.29.54-6.46.8-9.63h-2c-.12.66-.25,1.32-.35,2-.4,2.41-.78,4.82-1.18,7.23a3.77,3.77,0,0,1-.21.52,4.35,4.35,0,0,0-.28,1.2,5.21,5.21,0,0,1-.23,2.14,4.11,4.11,0,0,0-.17,2,9.12,9.12,0,0,1-.07,1.95c-.17,1.66-.4,3.32-.52,5a16,16,0,0,1-1.05,5.12,3.19,3.19,0,0,0-.11.33,8.57,8.57,0,0,0-.58,4c0,.2,0,.41,0,.67l-2-.41a4.28,4.28,0,0,1-.8-.21.72.72,0,0,0-.74.14,1.2,1.2,0,0,0-.35.77,4.92,4.92,0,0,0,0,.86,7.5,7.5,0,0,1-.17,2,4.91,4.91,0,0,1-.7,1.83c-.77,1-1.53,2-2.33,3a15.42,15.42,0,0,1-2,2.08,7.38,7.38,0,0,0-1.61,2.37c-.12.22-.22.44-.37.75a3.79,3.79,0,0,1-.34-.66,10.28,10.28,0,0,0-1.7-3.05,5.37,5.37,0,0,1-1.4-2.92,6.63,6.63,0,0,1,0-1.26,6.45,6.45,0,0,0-1.19-4.75,13.87,13.87,0,0,1-1.23-2,17.4,17.4,0,0,1-.8-2.57c-.27-1.35-.53-2.71-.77-4.07-.32-1.8-.6-3.61-.92-5.41a4.34,4.34,0,0,0-.3-1.05c-1.23-2.71-2.7-5.23-5.41-6.78A2,2,0,0,1,107,10a3.1,3.1,0,0,1-.09-1.6,8.57,8.57,0,0,1,.29-1.73,4.53,4.53,0,0,0,0-2.93,6.15,6.15,0,0,0-1.4-2.24c-1.21-1.09-2.94-.64-4.36-.31a3.63,3.63,0,0,0-1.47.54,3.4,3.4,0,0,0-.87,1.15c-.1.19-.17.4-.27.6a6.29,6.29,0,0,0-.41.92,3.26,3.26,0,0,0-.07.76c0,.22.13.42.12.64a1.61,1.61,0,0,1-.3.65c-.15.24-.28.5-.44.73a2.12,2.12,0,0,0-.23.35.64.64,0,0,0-.07.28.58.58,0,0,0,.08.22.3.3,0,0,0,.12.15c.14.08.33,0,.48.11a.46.46,0,0,1,.14.4c0,.25,0,.5,0,.76a.32.32,0,0,0,.09.24l.08,0a.22.22,0,0,1,.06.15,2.17,2.17,0,0,1,0,.72,1.15,1.15,0,0,0,0,.45.76.76,0,0,0,.47.42,11.21,11.21,0,0,0,2.39.54,1.14,1.14,0,0,1,.58.29,10,10,0,0,1,.81.9.57.57,0,0,1,.08.68,13.59,13.59,0,0,0-1.1,3.65,3.2,3.2,0,0,1-.54,1.4c-.24.38-.59.68-.85,1s-.38.51-.56.77c-.33.49-.41.38-.86,0a9.8,9.8,0,0,1-1.5-1c-.49-.5-.88-1.08-1.35-1.59a2.19,2.19,0,0,1-.52-.76,4,4,0,0,1-.12-1,4.75,4.75,0,0,0-.19-.83c-.09-.29-.17-.58-.26-.88a2.1,2.1,0,0,0-.31-.72,2.5,2.5,0,0,1-.39-.53c0-.11,0-.25-.15-.32a.26.26,0,0,0-.32,0c-.41.34.14,1.11.25,1.49-.11-.15-.2-.33-.32-.47a2.55,2.55,0,0,0-.26-.3,1.61,1.61,0,0,0-.17-.26.45.45,0,0,0-.12-.06c-.05,0-.06-.09-.1-.13a.7.7,0,0,0-.2-.08.5.5,0,0,0-.51.31c0,.05,0,.12-.08.15s-.14.05-.22.06a.36.36,0,0,0-.27.18.48.48,0,0,1-.1.17c-.11.1-.29,0-.42.1s-.13.19-.18.29a1.31,1.31,0,0,1-.24.28.85.85,0,0,0-.29.67,1.93,1.93,0,0,0,.22.65,2.85,2.85,0,0,0,.38.63c.08.1.17.18.25.27s.28.49.45.72l.63.78a4.16,4.16,0,0,0,.4.45c.18.17.4.3.59.47a9.2,9.2,0,0,1,1,1.59c.38.51.72,1.06,1.05,1.6.62,1,1.15,2.05,1.83,3,.41.59.8,1.21,1.26,1.76s1.51,1.39,2.4.83c.65-.41,1.2-.93,1.82-1.35.42-.29.45.09.53.44s.66,2,.76,2.44a13,13,0,0,1-1.38.28,10.58,10.58,0,0,0-4.51,1.47,9.67,9.67,0,0,1-1.09.5c-.66.28-1.33.53-2,.82a4.29,4.29,0,0,0-1.58,1.32,1.48,1.48,0,0,0-.25,1.48c.33.88.7,1.74,1.08,2.6.27.6.6,1.16.88,1.75.89,1.86,1.78,3.71,2.66,5.57a8,8,0,0,1,.64,2,2.47,2.47,0,0,1,0,1.89,4.8,4.8,0,0,1-1.25,1.21,13.73,13.73,0,0,1-3,1.73,12.27,12.27,0,0,0-1.48.88c-.34.22-.63.47-.53.94s.32.91.83,1a5.94,5.94,0,0,0,1.82.16,9,9,0,0,0,2.51-.61,6.19,6.19,0,0,1,3.84-.31,4.6,4.6,0,0,0,2-.07,1.33,1.33,0,0,0,1-1.3c-.06-1.63-1.42-2.74-2-4.19a24.63,24.63,0,0,1-.61-2.57c-.28-1.08-.56-2.17-.81-3.26-.2-.84-.27-1.71-.44-2.56a6.56,6.56,0,0,0-1-2.4c-.19-.29-.44-.72.1-.71s1,.12,1.48.13c1,0,2-.06,2.94-.11.76,0,1.52-.05,2.28,0a7.78,7.78,0,0,1,1,0,1.34,1.34,0,0,1,.59.2,1.57,1.57,0,0,1,.34.34c.37.46.75.92,1.09,1.41a12.43,12.43,0,0,0,.79,1.2,10.31,10.31,0,0,1,.92,1.25c.94,1.46,1.54,3.08,2.61,4.46a25.73,25.73,0,0,0,2.79,2.93c1,.89,1.91,1.81,2.94,2.62a3,3,0,0,0,2.77.62,2.31,2.31,0,0,0,1-.57A34.28,34.28,0,0,0,130,41.18,10.23,10.23,0,0,1,131.3,39c.25-.32.54-.62.81-.92a3.71,3.71,0,0,1,1.17-.64l1.39-.62a6.67,6.67,0,0,1,.94-.35,3.6,3.6,0,0,1,1.9,0,2.11,2.11,0,0,0,1.74-.31,1,1,0,0,0,.14-1.68,3,3,0,0,0-.91-.59.64.64,0,0,1-.44-.8,11.63,11.63,0,0,0,.21-2.12,19.67,19.67,0,0,0-.37-3.43,13.39,13.39,0,0,1-.18-5.2c.2-1.18.21-2.38.33-3.57.1-1,.23-2,.37-3a1.77,1.77,0,0,1,.34-.65,2.06,2.06,0,0,0,.2-2.13,3.51,3.51,0,0,1-.07-1.76c0-.3.12-.61.12-.91a.61.61,0,0,1,.59-.65,1.48,1.48,0,0,1,1.15.24,8.1,8.1,0,0,0,.8.43c.15-.41.27-.71.41-1.11C140.9,9.24,140,8.92,139,9.63Zm-2.6,23.55-1.43-.56a4.73,4.73,0,0,1,.56-3.32C136.48,27.84,136.37,33.18,136.37,33.18Z"/></g></g></svg>